# xmcd
#
# Track frame offsets:
#	150
#	21955
#	38312
#	52330
#	65570
#	77767
#	95355
#	111650
#	133482
#	149965
#
# Disc length: 2185 seconds
#
# Revision: 4
# Processed by: cddbd v1.5.2PL0 Copyright (c) Steve Scherf et al.
# Submitted via: audiograbber 1.83.01
#
DISCID=9c08870a
DTITLE=Willie Nelson and Others - Half Nelson
DYEAR=1985
DGENRE=Country
TTITLE0=Willie Nelson/Merle Haggard - Pancho and Lefty
TTITLE1=Willie Nelson/Lacy J Dalton - Slow Movin' Outlaw
TTITLE2=Willie Nelson/Neil Young - Are There Any More Real Cowboys
TTITLE3=Willie Nelson/Hank Williams - I Told A Lie To My Heart
TTITLE4=Willie Nelson/Mel Tillis - Texas On A Saturday Night
TTITLE5=Willie Nelson/Ray Charles - Seven Spanish Angels
TTITLE6=Willie Nelson/Julio Iglesias - To All The Girls I've Loved Before
TTITLE7=Willie Nelson/Carlos Santana - They All Went To Mexico
TTITLE8=Willie Nelson/Leon Russell - Honky Tonk Women
TTITLE9=Willie Nelson/George Jones - Half A Man
EXTD=
EXTT0=
EXTT1=
EXTT2=
EXTT3=
EXTT4=
EXTT5=
EXTT6=
EXTT7=
EXTT8=
EXTT9=
PLAYORDER=
